<svg width="60" height="60" viewBox="0 0 60 60" fill="none" xmlns="http://www.w3.org/2000/svg">
<g clip-path="url(#clip0_135_1116)">
<mask id="mask0_135_1116" style="mask-type:luminance" maskUnits="userSpaceOnUse" x="0" y="0" width="60" height="60">
<path d="M0 0H60V60H0V0Z" fill="white"/>
</mask>
<g mask="url(#mask0_135_1116)">
<path d="M32.2319 24.1362C32.1719 24.1932 32.1149 24.2503 32.0581 24.3073C31.3501 25.0153 30.6631 25.7472 29.9999 26.5005C29.3369 25.7472 28.6499 25.0153 27.9419 24.3073C27.8849 24.2503 27.8279 24.1932 27.7679 24.1362C25.4399 21.829 22.8749 19.759 20.1119 17.968C22.6109 12.8317 25.9439 8.1785 29.9369 4.18525L29.9999 4.12225L30.0629 4.18525C34.0559 8.1785 37.3889 12.8317 39.8879 17.968C37.1249 19.759 34.5601 21.829 32.2319 24.1362ZM59.8949 19.726C59.7269 17.695 59.3549 15.7178 58.7999 13.8218C58.5149 12.8408 58.1789 11.8807 57.7949 10.9475C56.7871 11.1215 55.7881 11.3255 54.8039 11.5628C52.4159 12.1325 50.1001 12.8797 47.8679 13.7917V13.7948C48.3091 14.6917 48.7289 15.6007 49.1249 16.5218C51.2849 15.6458 53.5259 14.9347 55.8391 14.4007C56.4149 16.2907 56.7871 18.271 56.9309 20.311C56.9761 20.95 56.9999 21.598 56.9999 22.2492C56.9999 26.8845 55.8329 31.2437 53.7781 35.0537C52.5271 37.376 50.9431 39.494 49.0919 41.342C48.7351 41.699 48.3689 42.0442 47.9939 42.3772C47.9999 42.2512 47.9999 42.125 47.9999 41.999C47.9999 41.792 47.9971 41.5853 47.9879 41.3783V41.375C47.9971 41 47.9999 40.625 47.9999 40.25C47.9999 34.9158 47.2261 29.7585 45.7829 24.8923C45.2041 22.9272 44.5109 21.01 43.7189 19.147C43.3259 18.22 42.9059 17.3048 42.4619 16.4048C39.8339 11.0675 36.3479 6.23125 32.1869 2.06725L32.1841 2.064C31.4761 1.356 30.7471 0.666 29.9999 0C29.2529 0.666 28.5239 1.356 27.8159 2.064L27.8129 2.06725C23.6519 6.23125 20.1659 11.0675 17.5379 16.4048C13.7189 14.2537 9.57288 12.6068 5.19588 11.5628C4.21188 11.3255 3.21288 11.1215 2.20488 10.9475C1.82088 11.8807 1.48488 12.8408 1.19988 13.8218C0.644877 15.7178 0.272877 17.695 0.104877 19.726C0.0358775 20.557 -0.00012207 21.4 -0.00012207 22.2492C-0.00012207 32.2247 4.86888 41.0662 12.3599 46.5145C12.4469 46.5833 12.5339 46.6462 12.6239 46.7092C13.6019 47.4052 14.6219 48.0445 15.6839 48.6205C15.4769 47.3755 15.3179 46.1122 15.2039 44.8342H15.2009C15.1799 44.5762 15.1589 44.3182 15.1409 44.0602V44.0513C15.0479 43.3792 14.9999 42.695 14.9999 41.999C14.9999 41.798 15.0029 41.6 15.0149 41.402C15.0119 41.396 15.0119 41.393 15.0149 41.3902C15.0119 41.387 15.0149 41.384 15.0149 41.384C15.0029 41.006 14.9999 40.628 14.9999 40.25C14.9999 37.0397 15.2969 33.9017 15.8639 30.8565C16.1309 29.4285 16.4549 28.0185 16.8389 26.6355C15.9899 26.0202 15.1171 25.4383 14.2169 24.8923C12.7739 29.7585 11.9999 34.9158 11.9999 40.25C11.9999 40.625 12.0029 41 12.0119 41.375C12.0029 41.582 11.9999 41.789 11.9999 41.999C11.9999 42.125 11.9999 42.2512 12.0059 42.3772C6.47688 37.4357 2.99988 30.2505 2.99988 22.2492C2.99988 21.598 3.02388 20.95 3.06888 20.311C3.21288 18.271 3.58488 16.2907 4.16088 14.4007C8.47188 15.3967 12.5459 17.011 16.2809 19.147C17.1629 19.648 18.0239 20.179 18.8639 20.74C20.7659 22.0002 22.5659 23.4043 24.2489 24.9342C24.7829 25.4202 25.3079 25.9213 25.8179 26.4313C26.1239 26.7373 26.4239 27.0465 26.7209 27.3585C27.1769 27.8445 27.6239 28.3395 28.0619 28.8435C26.7839 30.4848 25.6139 32.2128 24.5579 34.0158C22.2089 38.027 20.4239 42.4102 19.3139 47.0545C19.0769 48.0382 18.8729 49.0372 18.6989 50.0455C18.6119 50.5555 18.5309 51.0685 18.4589 51.5815C18.2819 52.8687 18.1529 54.1707 18.0779 55.4877C18.9779 56.2827 19.9589 56.991 21.0059 57.594C22.8361 58.6527 24.8671 59.397 27.0299 59.754C27.9959 59.916 28.9889 60 29.9999 60C31.0109 60 32.0039 59.916 32.9699 59.754C35.1329 59.397 37.1641 58.6528 38.9939 57.597V57.594C40.0409 56.991 41.0219 56.2827 41.9219 55.4877C41.8469 54.1707 41.7179 52.8687 41.5409 51.5815C41.4689 51.0685 41.3879 50.5555 41.3009 50.0455C41.1269 49.0372 40.9231 48.0382 40.6859 47.0545C39.5759 42.4102 37.7909 38.027 35.4419 34.0158C34.7579 34.8768 34.1129 35.765 33.5009 36.683C35.4419 40.223 36.9149 44.0513 37.8479 48.0895C38.0729 49.0645 38.2649 50.0515 38.4269 51.0505C38.5919 52.0677 38.7209 53.0967 38.8139 54.1377C37.1039 55.3827 35.1211 56.274 32.9699 56.7057C32.0099 56.898 31.0171 56.9997 29.9999 56.9997C28.9829 56.9997 27.9929 56.898 27.0329 56.7057H27.0299C24.8789 56.274 22.8959 55.3827 21.1859 54.1377C21.2789 53.0967 21.4079 52.0677 21.5729 51.0505C21.7349 50.0515 21.9269 49.0645 22.1519 48.0895C23.0849 44.0513 24.5579 40.223 26.4989 36.683C27.5339 34.7837 28.7069 32.9688 29.9999 31.2495C30.6179 30.4245 31.2661 29.6235 31.9379 28.8435C32.3759 28.3395 32.8229 27.8445 33.2789 27.3585H33.2819C33.5759 27.0465 33.8759 26.7373 34.1819 26.4313C34.6919 25.9213 35.2169 25.4202 35.7509 24.9342C37.4341 23.4043 39.2339 22.0002 41.1359 20.74C41.9249 22.648 42.6059 24.6162 43.1609 26.6355C43.5449 28.0185 43.8689 29.4285 44.1359 30.8565C44.7031 33.9017 44.9999 37.0397 44.9999 40.25C44.9999 40.628 44.9971 41.0032 44.9851 41.381C44.9879 41.384 44.9879 41.387 44.9851 41.3902C44.9879 41.393 44.9879 41.396 44.9851 41.402C44.9971 41.6 44.9999 41.798 44.9999 41.999C44.9999 42.695 44.9519 43.3792 44.8589 44.0513V44.0602C44.8411 44.3182 44.8201 44.5762 44.7959 44.8342C44.6819 46.1122 44.5229 47.3755 44.3159 48.6205C45.3779 48.0445 46.3979 47.4052 47.3759 46.7092C47.4661 46.6462 47.5529 46.5833 47.6399 46.5145C48.9089 45.5932 50.1059 44.5732 51.2129 43.4632C52.2151 42.4612 53.1479 41.387 53.9999 40.25C57.7681 35.2367 59.9999 29.0055 59.9999 22.2492C59.9999 21.4 59.9641 20.557 59.8949 19.726Z" fill="#010101"/>
</g>
</g>
<defs>
<clipPath id="clip0_135_1116">
<rect width="60" height="60" fill="white"/>
</clipPath>
</defs>
</svg>
