<svg width="170" height="40" viewBox="0 0 170 40" fill="none" xmlns="http://www.w3.org/2000/svg">
<g clip-path="url(#clip0_122_24)">
<mask id="mask0_122_24" style="mask-type:luminance" maskUnits="userSpaceOnUse" x="0" y="0" width="170" height="40">
<path d="M0 0H169.778V40H0V0Z" fill="white"/>
</mask>
<g mask="url(#mask0_122_24)">
<path d="M21.46 16.0911C21.4201 16.1291 21.3821 16.1671 21.3442 16.2051C20.8728 16.6771 20.4154 17.1651 19.974 17.6671C19.5326 17.1651 19.0752 16.6771 18.6038 16.2051C18.5658 16.1671 18.5279 16.1291 18.4879 16.0911C16.938 14.5531 15.2302 13.1731 13.3906 11.9789C15.0544 8.55465 17.2735 5.45265 19.932 2.7904L19.974 2.7484L20.0159 2.7904C22.6744 5.45265 24.8935 8.55465 26.5574 11.9789C24.7178 13.1731 23.01 14.5531 21.46 16.0911ZM39.8779 13.1509C39.7661 11.7969 39.5184 10.4789 39.1489 9.2149C38.9591 8.56065 38.7354 7.92065 38.4798 7.29865C37.8086 7.41465 37.1435 7.55065 36.4884 7.70865C34.8984 8.08865 33.3565 8.58665 31.8704 9.1949V9.19665C32.164 9.7949 32.4437 10.4009 32.7073 11.0149C34.1454 10.4309 35.6375 9.9569 37.1775 9.6009C37.561 10.8609 37.8086 12.1809 37.9045 13.5409C37.9345 13.9669 37.9504 14.3989 37.9504 14.8331C37.9504 17.9231 37.1735 20.8294 35.8053 23.3694C34.9723 24.9176 33.9177 26.3296 32.6853 27.5616C32.4477 27.7996 32.204 28.0296 31.9543 28.2519C31.9583 28.1679 31.9583 28.0839 31.9583 27.9999C31.9583 27.8616 31.9563 27.7236 31.9503 27.5859V27.5839C31.9563 27.3339 31.9583 27.0836 31.9583 26.8336C31.9583 23.2774 31.443 19.8394 30.4822 16.5951C30.0967 15.2851 29.6353 14.0071 29.108 12.7649C28.8464 12.1469 28.5667 11.5369 28.2711 10.9369C26.5214 7.37865 24.2004 4.1544 21.4301 1.3784L21.4281 1.3764C20.9567 0.904396 20.4713 0.444397 19.974 0.000396729C19.4766 0.444397 18.9913 0.904396 18.5199 1.3764L18.5179 1.3784C15.7475 4.1544 13.4265 7.37865 11.6768 10.9369C9.13417 9.50265 6.37378 8.40465 3.45959 7.70865C2.80445 7.55065 2.13932 7.41465 1.4682 7.29865C1.21254 7.92065 0.988829 8.56065 0.799077 9.2149C0.429561 10.4789 0.181886 11.7969 0.0700322 13.1509C0.0240923 13.7051 0.00012207 14.2671 0.00012207 14.8331C0.00012207 21.4834 3.24188 27.3776 8.22935 31.0099C8.28728 31.0559 8.3452 31.0979 8.40512 31.1399C9.05627 31.6039 9.73538 32.0299 10.4425 32.4139C10.3046 31.5839 10.1988 30.7419 10.1229 29.8896H10.1209C10.1069 29.7179 10.0929 29.5456 10.0809 29.3739V29.3676C10.019 28.9196 9.98705 28.4636 9.98705 27.9999C9.98705 27.8659 9.98905 27.7336 9.99704 27.6016C9.99504 27.5976 9.99504 27.5959 9.99704 27.5939C9.99504 27.5916 9.99704 27.5896 9.99704 27.5896C9.98905 27.3376 9.98705 27.0859 9.98705 26.8336C9.98705 24.6936 10.1848 22.6014 10.5623 20.5714C10.7401 19.6194 10.9558 18.6794 11.2114 17.7571C10.6462 17.3471 10.0649 16.9591 9.46573 16.5951C8.50499 19.8394 7.98967 23.2774 7.98967 26.8336C7.98967 27.0836 7.99166 27.3339 7.99766 27.5839C7.99166 27.7216 7.98967 27.8596 7.98967 27.9999C7.98967 28.0839 7.98967 28.1679 7.99366 28.2519C4.31248 24.9576 1.99751 20.1674 1.99751 14.8331C1.99751 14.3989 2.01349 13.9669 2.04345 13.5409C2.13932 12.1809 2.387 10.8609 2.7705 9.6009C5.64074 10.2649 8.35319 11.3409 10.8399 12.7649C11.4272 13.0989 12.0004 13.4529 12.5597 13.8269C13.826 14.6671 15.0245 15.6031 16.145 16.6231C16.5005 16.9471 16.8501 17.2811 17.1896 17.6211C17.3934 17.8254 17.5931 18.0311 17.7908 18.2391C18.0944 18.5634 18.392 18.8931 18.6837 19.2294C17.8328 20.3234 17.0538 21.4754 16.3507 22.6776C14.7868 25.3516 13.5983 28.2736 12.8593 31.3699C12.7015 32.0259 12.5657 32.6919 12.4498 33.3641C12.3919 33.7039 12.338 34.0459 12.29 34.3881C12.1722 35.2461 12.0863 36.1141 12.0364 36.9921C12.6356 37.5224 13.2887 37.9941 13.9858 38.3964C15.2042 39.1024 16.5565 39.5981 17.9966 39.8361C18.6397 39.9444 19.3009 40.0004 19.974 40.0004C20.6471 40.0004 21.3082 39.9444 21.9514 39.8361C23.3915 39.5981 24.7437 39.1024 25.9621 38.3984V38.3964C26.6592 37.9941 27.3124 37.5224 27.9116 36.9921C27.8617 36.1141 27.7758 35.2461 27.6579 34.3881C27.61 34.0459 27.5561 33.7039 27.4981 33.3641C27.3823 32.6919 27.2465 32.0259 27.0887 31.3699C26.3496 28.2736 25.1612 25.3516 23.5972 22.6776C23.1418 23.2516 22.7124 23.8436 22.3049 24.4556C23.5972 26.8156 24.578 29.3676 25.1991 32.0599C25.3489 32.7101 25.4768 33.3679 25.5846 34.0339C25.6945 34.7119 25.7804 35.3981 25.8423 36.0921C24.7038 36.9221 23.3835 37.5161 21.9514 37.8044C21.3122 37.9321 20.6511 38.0004 19.974 38.0004C19.2969 38.0004 18.6377 37.9321 17.9986 37.8044H17.9966C16.5644 37.5161 15.2442 36.9221 14.1057 36.0921C14.1676 35.3981 14.2535 34.7119 14.3633 34.0339C14.4712 33.3679 14.599 32.7101 14.7488 32.0599C15.37 29.3676 16.3507 26.8156 17.643 24.4556C18.3321 23.1896 19.1131 21.9794 19.974 20.8334C20.3854 20.2834 20.8169 19.7494 21.2643 19.2294C21.5559 18.8931 21.8535 18.5634 22.1571 18.2391H22.1591C22.3549 18.0311 22.5546 17.8254 22.7583 17.6211C23.0979 17.2811 23.4474 16.9471 23.803 16.6231C24.9235 15.6031 26.1219 14.6671 27.3883 13.8269C27.9136 15.0991 28.367 16.4111 28.7365 17.7571C28.9922 18.6794 29.2079 19.6194 29.3857 20.5714C29.7632 22.6014 29.9609 24.6936 29.9609 26.8336C29.9609 27.0859 29.9589 27.3359 29.9509 27.5876C29.9529 27.5896 29.9529 27.5916 29.9509 27.5939C29.9529 27.5959 29.9529 27.5976 29.9509 27.6016C29.9589 27.7336 29.9609 27.8659 29.9609 27.9999C29.9609 28.4636 29.9289 28.9196 29.867 29.3676V29.3739C29.855 29.5456 29.8411 29.7179 29.8251 29.8896C29.7492 30.7419 29.6433 31.5839 29.5055 32.4139C30.2126 32.0299 30.8917 31.6039 31.5428 31.1399C31.6028 31.0979 31.6607 31.0559 31.7186 31.0099C32.5635 30.3959 33.3605 29.7159 34.0975 28.9756C34.7646 28.3076 35.3858 27.5916 35.9531 26.8336C38.4618 23.4916 39.9478 19.3371 39.9478 14.8331C39.9478 14.2671 39.9239 13.7051 39.8779 13.1509Z" fill="#010101"/>
<path d="M147.182 24.25L153.549 11.5L159.916 24.25H147.182ZM165.284 35H169.778L157.294 10H154.298H152.8H152.301L139.817 35H141.814L146.433 25.75H160.665L165.284 35Z" fill="#010101"/>
<path d="M76.8993 21.75H58.9229V10H54.9281V21.75V23.25V35H58.9229V23.25H76.8993V35H80.8941V23.25V21.75V10H76.8993V21.75Z" fill="#010101"/>
<path d="M86.5117 10V11.5V21.75V23.25V33.5V35H90.5065H109.482V33.5H90.5065V23.25H102.491V21.75H90.5065V11.5H109.482V10H90.5065H86.5117Z" fill="#010101"/>
<path d="M118.345 21.75V11.5H128.208C131.034 11.5002 133.326 13.7948 133.326 16.625C133.326 19.4555 131.034 21.75 128.207 21.75H125.084H118.345ZM137.32 16.625C137.32 12.966 133.967 10 129.83 10H118.345H114.35V11.5V21.75V23.25V35H118.345V23.25H121.271C122.375 23.25 122.909 23.25 124.048 24.75L130.329 33.0255C131.273 34.2695 132.744 35 134.304 35H136.821L127.903 23.25H129.83C133.967 23.25 137.32 20.284 137.32 16.625Z" fill="#010101"/>
</g>
</g>
<defs>
<clipPath id="clip0_122_24">
<rect width="169.778" height="40" fill="white"/>
</clipPath>
</defs>
</svg>
