<svg width="16" height="16" viewBox="0 0 16 16" fill="none" xmlns="http://www.w3.org/2000/svg">
<path d="M14.0937 11.6875C13.5974 11.1875 12.3956 10.4578 11.8124 10.1638C11.0531 9.78125 10.9906 9.75 10.3937 10.1934C9.99556 10.4894 9.73087 10.7538 9.26494 10.6544C8.799 10.555 7.7865 9.99469 6.89993 9.11094C6.01337 8.22719 5.42056 7.18531 5.32087 6.72094C5.22118 6.25656 5.48993 5.995 5.78306 5.59594C6.19618 5.03344 6.16493 4.93969 5.81181 4.18031C5.5365 3.58969 4.78556 2.39906 4.28368 1.90531C3.74681 1.375 3.74681 1.46875 3.40087 1.6125C3.11924 1.731 2.84905 1.87504 2.59368 2.04281C2.09368 2.375 1.81618 2.65094 1.62212 3.06563C1.42806 3.48031 1.34087 4.4525 2.34306 6.27313C3.34525 8.09375 4.04837 9.02469 5.50368 10.4759C6.959 11.9272 8.07806 12.7075 9.714 13.625C11.7377 14.7584 12.514 14.5375 12.9299 14.3438C13.3459 14.15 13.6231 13.875 13.9559 13.375C14.1241 13.1201 14.2684 12.8502 14.3871 12.5688C14.5312 12.2241 14.6249 12.2241 14.0937 11.6875Z" stroke="#848484" stroke-miterlimit="10"/>
</svg>
