<svg width="320" height="320" viewBox="0 0 320 320" fill="none" xmlns="http://www.w3.org/2000/svg">
<g clip-path="url(#clip0_1_18)">
<mask id="mask0_1_18" style="mask-type:luminance" maskUnits="userSpaceOnUse" x="0" y="0" width="320" height="320">
<path d="M0 0H320V320H0V0Z" fill="white"/>
</mask>
<g mask="url(#mask0_1_18)">
<path d="M171.904 128.727C171.584 129.031 171.279 129.335 170.977 129.639C167.201 133.415 163.537 137.319 160 141.336C156.464 137.319 152.799 133.415 149.023 129.639C148.719 129.335 148.415 129.031 148.096 128.727C135.68 116.421 122 105.381 107.264 95.8292C120.592 68.4359 138.368 43.6185 159.664 22.3212L160 21.9852L160.336 22.3212C181.632 43.6185 199.408 68.4359 212.736 95.8292C198 105.381 184.321 116.421 171.904 128.727ZM319.44 105.205C318.544 94.3732 316.56 83.8279 313.6 73.7159C312.08 68.4839 310.288 63.3639 308.24 58.3865C302.865 59.3145 297.537 60.4026 292.288 61.6679C279.552 64.7065 267.201 68.6919 255.296 73.5559V73.5719C257.649 78.3559 259.888 83.2039 262 88.1159C273.52 83.4439 285.472 79.6519 297.809 76.8039C300.88 86.8839 302.865 97.4452 303.632 108.325C303.873 111.733 304 115.189 304 118.663C304 143.384 297.776 166.633 286.817 186.953C280.145 199.339 271.697 210.635 261.824 220.491C259.921 222.395 257.968 224.236 255.968 226.012C256 225.34 256 224.667 256 223.995C256 222.891 255.985 221.788 255.936 220.684V220.667C255.985 218.667 256 216.667 256 214.667C256 186.217 251.873 158.712 244.176 132.759C241.089 122.279 237.392 112.053 233.168 102.117C231.072 97.1732 228.832 92.2919 226.464 87.4919C212.448 59.0266 193.856 33.2332 171.664 11.0252L171.649 11.0079C167.873 7.23187 163.985 3.55188 160 -0.00012207C156.016 3.55188 152.128 7.23187 148.352 11.0079L148.336 11.0252C126.144 33.2332 107.552 59.0266 93.5355 87.4919C73.1675 76.0199 51.0555 67.2359 27.7115 61.6679C22.4635 60.4026 17.1355 59.3145 11.7595 58.3865C9.7115 63.3639 7.91951 68.4839 6.39951 73.7159C3.43951 83.8279 1.45551 94.3732 0.559509 105.205C0.191509 109.637 -0.000488281 114.133 -0.000488281 118.663C-0.000488281 171.865 25.9675 219.02 65.9195 248.077C66.3835 248.444 66.8475 248.78 67.3275 249.116C72.5435 252.828 77.9835 256.237 83.6475 259.309C82.5435 252.669 81.6955 245.932 81.0875 239.116H81.0715C80.9595 237.74 80.8475 236.364 80.7515 234.988V234.94C80.2555 231.356 79.9995 227.707 79.9995 223.995C79.9995 222.923 80.0155 221.867 80.0795 220.811C80.0635 220.779 80.0635 220.763 80.0795 220.748C80.0635 220.731 80.0795 220.715 80.0795 220.715C80.0155 218.699 79.9995 216.683 79.9995 214.667C79.9995 197.545 81.5835 180.809 84.6075 164.568C86.0315 156.952 87.7595 149.432 89.8075 142.056C85.2795 138.775 80.6248 135.671 75.8235 132.759C68.1275 158.712 63.9995 186.217 63.9995 214.667C63.9995 216.667 64.0155 218.667 64.0635 220.667C64.0155 221.771 63.9995 222.875 63.9995 223.995C63.9995 224.667 63.9995 225.34 64.0315 226.012C34.5435 199.657 15.9995 161.336 15.9995 118.663C15.9995 115.189 16.1275 111.733 16.3675 108.325C17.1355 97.4452 19.1195 86.8839 22.1915 76.8039C45.1835 82.1159 66.9115 90.7252 86.8315 102.117C91.5355 104.789 96.1275 107.621 100.608 110.613C110.752 117.335 120.352 124.823 129.328 132.983C132.176 135.575 134.976 138.247 137.696 140.967C139.328 142.599 140.928 144.248 142.512 145.912C144.944 148.504 147.328 151.144 149.664 153.832C142.848 162.585 136.608 171.801 130.976 181.417C118.448 202.811 108.928 226.188 103.008 250.957C101.744 256.204 100.656 261.532 99.7275 266.909C99.2635 269.629 98.8315 272.365 98.4475 275.101C97.5035 281.967 96.8155 288.911 96.4155 295.935C101.216 300.175 106.448 303.952 112.032 307.168C121.793 312.815 132.625 316.784 144.16 318.688C149.312 319.552 154.608 320 160 320C165.392 320 170.688 319.552 175.84 318.688C187.376 316.784 198.209 312.815 207.968 307.184V307.168C213.552 303.952 218.784 300.175 223.583 295.935C223.184 288.911 222.496 281.967 221.552 275.101C221.168 272.365 220.736 269.629 220.272 266.909C219.344 261.532 218.257 256.204 216.992 250.957C211.072 226.188 201.551 202.811 189.023 181.417C185.376 186.009 181.936 190.747 178.672 195.643C189.024 214.523 196.88 234.94 201.856 256.477C203.056 261.677 204.08 266.941 204.944 272.269C205.824 277.695 206.512 283.183 207.008 288.735C197.888 295.375 187.313 300.128 175.84 302.431C170.719 303.456 165.425 303.999 160 303.999C154.576 303.999 149.296 303.456 144.176 302.431H144.16C132.688 300.128 122.112 295.375 112.992 288.735C113.488 283.183 114.176 277.695 115.056 272.269C115.92 266.941 116.944 261.677 118.144 256.477C123.12 234.94 130.976 214.523 141.328 195.643C146.848 185.513 153.104 175.833 160 166.664C163.296 162.264 166.753 157.992 170.336 153.832C172.672 151.144 175.056 148.504 177.488 145.912H177.504C179.072 144.248 180.672 142.599 182.304 140.967C185.024 138.247 187.824 135.575 190.672 132.983C199.649 124.823 209.248 117.335 219.392 110.613C223.6 120.789 227.232 131.287 230.192 142.056C232.24 149.432 233.968 156.952 235.392 164.568C238.417 180.809 240 197.545 240 214.667C240 216.683 239.985 218.684 239.921 220.699C239.936 220.715 239.936 220.731 239.921 220.748C239.936 220.763 239.936 220.779 239.921 220.811C239.985 221.867 240 222.923 240 223.995C240 227.707 239.743 231.356 239.247 234.94V234.988C239.153 236.364 239.041 237.74 238.911 239.116C238.304 245.932 237.456 252.669 236.352 259.309C242.016 256.237 247.456 252.828 252.672 249.116C253.153 248.78 253.616 248.444 254.08 248.077C260.848 243.164 267.232 237.724 273.135 231.804C278.481 226.46 283.456 220.731 288 214.667C308.097 187.929 320 154.696 320 118.663C320 114.133 319.809 109.637 319.44 105.205Z" fill="#010101"/>
</g>
</g>
<defs>
<clipPath id="clip0_1_18">
<rect width="320" height="320" fill="white"/>
</clipPath>
</defs>
</svg>
